<svg xmlns="http://www.w3.org/2000/svg" xmlns:xlink="http://www.w3.org/1999/xlink" contentStyleType="text/css" data-diagram-type="CLASS" height="706px" preserveAspectRatio="none" style="width:2946px;height:706px;background:#FFFFFF;" version="1.1" viewBox="0 0 2946 706" width="2946px" zoomAndPan="magnify"><?plantuml 1.2026.3beta5?><defs/><g><!--cluster Model--><g class="cluster" data-qualified-name="Model" data-source-line="6" id="ent0002"><path d="M1823.5,233.48 L1872.3652,233.48 A3.75,3.75 0 0 1 1874.8652,235.98 L1881.8652,255.7769 L2178.5,255.7769 A2.5,2.5 0 0 1 2181,258.2769 L2181,427.76 A2.5,2.5 0 0 1 2178.5,430.26 L1823.5,430.26 A2.5,2.5 0 0 1 1821,427.76 L1821,235.98 A2.5,2.5 0 0 1 1823.5,233.48" fill="none" style="stroke:#000000;stroke-width:1.5;"/><line style="stroke:#000000;stroke-width:1.5;" x1="1821" x2="1881.8652" y1="255.7769" y2="255.7769"/><text fill="#000000" font-family="sans-serif" font-size="14" font-weight="700" lengthAdjust="spacing" textLength="47.8652" x="1825" y="248.4751">Model</text></g><!--cluster Controller--><g class="cluster" data-qualified-name="Controller" data-source-line="18" id="ent0004"><path d="M8.5,6 L88.5713,6 A3.75,3.75 0 0 1 91.0713,8.5 L98.0713,28.2969 L1794.5,28.2969 A2.5,2.5 0 0 1 1797,30.7969 L1797,567.19 A2.5,2.5 0 0 1 1794.5,569.69 L8.5,569.69 A2.5,2.5 0 0 1 6,567.19 L6,8.5 A2.5,2.5 0 0 1 8.5,6" fill="none" style="stroke:#000000;stroke-width:1.5;"/><line style="stroke:#000000;stroke-width:1.5;" x1="6" x2="98.0713" y1="28.2969" y2="28.2969"/><text fill="#000000" font-family="sans-serif" font-size="14" font-weight="700" lengthAdjust="spacing" textLength="79.0713" x="10" y="20.9951">Controller</text></g><!--cluster View--><g class="cluster" data-qualified-name="View" data-source-line="59" id="ent0019"><path d="M2207.5,257.92 L2246.5625,257.92 A3.75,3.75 0 0 1 2249.0625,260.42 L2256.0625,280.2169 L2928.5,280.2169 A2.5,2.5 0 0 1 2931,282.7169 L2931,688.62 A2.5,2.5 0 0 1 2928.5,691.12 L2207.5,691.12 A2.5,2.5 0 0 1 2205,688.62 L2205,260.42 A2.5,2.5 0 0 1 2207.5,257.92" fill="none" style="stroke:#000000;stroke-width:1.5;"/><line style="stroke:#000000;stroke-width:1.5;" x1="2205" x2="2256.0625" y1="280.2169" y2="280.2169"/><text fill="#000000" font-family="sans-serif" font-size="14" font-weight="700" lengthAdjust="spacing" textLength="38.0625" x="2209" y="272.9151">View</text></g><!--class DigitalTwinModel--><g class="entity" data-qualified-name="Model.DigitalTwinModel" data-source-line="7" id="ent0003"><rect fill="#F1F1F1" height="145.7813" rx="2.5" ry="2.5" style="stroke:#181818;stroke-width:0.5;" width="328.8389" x="1836.58" y="268.48"/><ellipse cx="1936.6479" cy="284.48" fill="#C2C2C2" rx="11" ry="11" style="stroke:#181818;stroke-width:1;"/><path d="M1939.6166,290.1206 Q1939.0385,290.4175 1938.3979,290.5581 Q1937.7572,290.7144 1937.0541,290.7144 Q1934.5541,290.7144 1933.226,289.0738 Q1931.9135,287.4175 1931.9135,284.2925 Q1931.9135,281.1675 1933.226,279.5113 Q1934.5541,277.855 1937.0541,277.855 Q1937.7572,277.855 1938.3979,278.0113 Q1939.0541,278.1675 1939.6166,278.4644 L1939.6166,281.1831 Q1938.9916,280.605 1938.3979,280.3394 Q1937.8041,280.0581 1937.1791,280.0581 Q1935.8354,280.0581 1935.1479,281.1363 Q1934.4604,282.1988 1934.4604,284.2925 Q1934.4604,286.3863 1935.1479,287.4644 Q1935.8354,288.5269 1937.1791,288.5269 Q1937.8041,288.5269 1938.3979,288.2613 Q1938.9916,287.98 1939.6166,287.4019 L1939.6166,290.1206 Z " fill="#000000"/><text fill="#000000" font-family="sans-serif" font-size="14" lengthAdjust="spacing" textLength="120.2031" x="1957.1479" y="289.3267">DigitalTwinModel</text><line style="stroke:#181818;stroke-width:0.5;" x1="1837.58" x2="2164.4189" y1="300.48" y2="300.48"/><text fill="#000000" font-family="sans-serif" font-size="14" lengthAdjust="spacing" textLength="148.4424" x="1842.58" y="317.4751">+rawBimData: IfcFile</text><text fill="#000000" font-family="sans-serif" font-size="14" lengthAdjust="spacing" textLength="178.5889" x="1842.58" y="333.772">+metadataConfig: Config</text><text fill="#000000" font-family="sans-serif" font-size="14" lengthAdjust="spacing" textLength="132.248" x="1842.58" y="350.0689">+filteredData: Dict</text><text fill="#000000" font-family="sans-serif" font-size="14" lengthAdjust="spacing" textLength="215.0791" x="1842.58" y="366.3657">+simulationResult: ResultData</text><line style="stroke:#181818;stroke-width:0.5;" x1="1837.58" x2="2164.4189" y1="373.6675" y2="373.6675"/><text fill="#000000" font-family="sans-serif" font-size="14" lengthAdjust="spacing" textLength="106.2031" x="1842.58" y="390.6626">+getBimData()</text><text fill="#000000" font-family="sans-serif" font-size="14" lengthAdjust="spacing" textLength="316.8389" x="1842.58" y="406.9595">+updateSimulationResult(result: ResultData)</text></g><!--class SimulationController--><g class="entity" data-qualified-name="Controller.SimulationController" data-source-line="19" id="ent0005"><rect fill="#F1F1F1" height="129.4844" rx="2.5" ry="2.5" style="stroke:#181818;stroke-width:0.5;" width="321.2031" x="1459.4" y="41"/><ellipse cx="1543.8785" cy="57" fill="#C2C2C2" rx="11" ry="11" style="stroke:#181818;stroke-width:1;"/><path d="M1546.8473,62.6406 Q1546.2691,62.9375 1545.6285,63.0781 Q1544.9879,63.2344 1544.2848,63.2344 Q1541.7848,63.2344 1540.4566,61.5938 Q1539.1441,59.9375 1539.1441,56.8125 Q1539.1441,53.6875 1540.4566,52.0313 Q1541.7848,50.375 1544.2848,50.375 Q1544.9879,50.375 1545.6285,50.5313 Q1546.2848,50.6875 1546.8473,50.9844 L1546.8473,53.7031 Q1546.2223,53.125 1545.6285,52.8594 Q1545.0348,52.5781 1544.4098,52.5781 Q1543.066,52.5781 1542.3785,53.6563 Q1541.691,54.7188 1541.691,56.8125 Q1541.691,58.9063 1542.3785,59.9844 Q1543.066,61.0469 1544.4098,61.0469 Q1545.0348,61.0469 1545.6285,60.7813 Q1546.2223,60.5 1546.8473,59.9219 L1546.8473,62.6406 Z " fill="#000000"/><text fill="#000000" font-family="sans-serif" font-size="14" lengthAdjust="spacing" textLength="143.7461" x="1564.3785" y="61.8467">SimulationController</text><line style="stroke:#181818;stroke-width:0.5;" x1="1460.4" x2="1779.6031" y1="73" y2="73"/><text fill="#000000" font-family="sans-serif" font-size="14" lengthAdjust="spacing" textLength="178.0146" x="1465.4" y="89.9951">-model: DigitalTwinModel</text><text fill="#000000" font-family="sans-serif" font-size="14" lengthAdjust="spacing" textLength="154.5605" x="1465.4" y="106.292">-view: SimulationView</text><text fill="#000000" font-family="sans-serif" font-size="14" lengthAdjust="spacing" textLength="309.2031" x="1465.4" y="122.5889">-commandQueue: List&lt;IPipelineCommand&gt;</text><line style="stroke:#181818;stroke-width:0.5;" x1="1460.4" x2="1779.6031" y1="129.8906" y2="129.8906"/><text fill="#000000" font-family="sans-serif" font-size="14" lengthAdjust="spacing" textLength="291.5322" x="1465.4" y="146.8857">+addCommand(cmd: IPipelineCommand)</text><text fill="#000000" font-family="sans-serif" font-size="14" lengthAdjust="spacing" textLength="101.2539" x="1465.4" y="163.1826">+runPipeline()</text></g><!--class IPipelineCommand--><g class="entity" data-qualified-name="Controller.IPipelineCommand" data-source-line="27" id="ent0006"><rect fill="#F1F1F1" height="64.5625" rx="2.5" ry="2.5" style="stroke:#181818;stroke-width:0.5;" width="302.5957" x="1048.7" y="309.09"/><ellipse cx="1130.157" cy="329.2228" fill="#B1B1B1" rx="11" ry="11" style="stroke:#181818;stroke-width:1;"/><path d="M1126.0789,324.9884 L1126.0789,322.8322 L1133.4695,322.8322 L1133.4695,324.9884 L1131.0008,324.9884 L1131.0008,333.0666 L1133.4695,333.0666 L1133.4695,335.2228 L1126.0789,335.2228 L1126.0789,333.0666 L1128.5477,333.0666 L1128.5477,324.9884 L1126.0789,324.9884 Z " fill="#000000"/><text fill="#000000" font-family="sans-serif" font-size="12" font-style="italic" lengthAdjust="spacing" textLength="68.4082" x="1182.0438" y="325.2287">&#171;Interface&#187;</text><text fill="#000000" font-family="sans-serif" font-size="14" font-style="italic" lengthAdjust="spacing" textLength="131.1816" x="1150.657" y="341.0539">IPipelineCommand</text><line style="stroke:#181818;stroke-width:0.5;" x1="1049.7" x2="1350.2957" y1="349.3556" y2="349.3556"/><text fill="#000000" font-family="sans-serif" font-size="14" lengthAdjust="spacing" textLength="290.5957" x="1054.7" y="366.3507">+execute(model: DigitalTwinModel): void</text></g><!--class LoadBimCommand--><g class="entity" data-qualified-name="Controller.LoadBimCommand" data-source-line="31" id="ent0007"><rect fill="#F1F1F1" height="56.2969" rx="2.5" ry="2.5" style="stroke:#181818;stroke-width:0.5;" width="263.8018" x="22.1" y="497.39"/><ellipse cx="83.2919" cy="513.39" fill="#C2C2C2" rx="11" ry="11" style="stroke:#181818;stroke-width:1;"/><path d="M86.2606,519.0306 Q85.6825,519.3275 85.0419,519.4681 Q84.4013,519.6244 83.6981,519.6244 Q81.1981,519.6244 79.87,517.9838 Q78.5575,516.3275 78.5575,513.2025 Q78.5575,510.0775 79.87,508.4213 Q81.1981,506.765 83.6981,506.765 Q84.4013,506.765 85.0419,506.9213 Q85.6981,507.0775 86.2606,507.3744 L86.2606,510.0931 Q85.6356,509.515 85.0419,509.2494 Q84.4481,508.9681 83.8231,508.9681 Q82.4794,508.9681 81.7919,510.0463 Q81.1044,511.1088 81.1044,513.2025 Q81.1044,515.2963 81.7919,516.3744 Q82.4794,517.4369 83.8231,517.4369 Q84.4481,517.4369 85.0419,517.1713 Q85.6356,516.89 86.2606,516.3119 L86.2606,519.0306 Z " fill="#000000"/><text fill="#000000" font-family="sans-serif" font-size="14" lengthAdjust="spacing" textLength="132.918" x="103.7919" y="518.2367">LoadBimCommand</text><line style="stroke:#181818;stroke-width:0.5;" x1="23.1" x2="284.9018" y1="529.39" y2="529.39"/><text fill="#000000" font-family="sans-serif" font-size="14" lengthAdjust="spacing" textLength="251.8018" x="28.1" y="546.3851">+execute(model: DigitalTwinModel)</text></g><!--class FilterLodAndPsetCommand--><g class="entity" data-qualified-name="Controller.FilterLodAndPsetCommand" data-source-line="34" id="ent0008"><rect fill="#F1F1F1" height="56.2969" rx="2.5" ry="2.5" style="stroke:#181818;stroke-width:0.5;" width="263.8018" x="321.1" y="497.39"/><ellipse cx="354.8778" cy="513.39" fill="#C2C2C2" rx="11" ry="11" style="stroke:#181818;stroke-width:1;"/><path d="M357.8466,519.0306 Q357.2685,519.3275 356.6278,519.4681 Q355.9872,519.6244 355.2841,519.6244 Q352.7841,519.6244 351.456,517.9838 Q350.1435,516.3275 350.1435,513.2025 Q350.1435,510.0775 351.456,508.4213 Q352.7841,506.765 355.2841,506.765 Q355.9872,506.765 356.6278,506.9213 Q357.2841,507.0775 357.8466,507.3744 L357.8466,510.0931 Q357.2216,509.515 356.6278,509.2494 Q356.0341,508.9681 355.4091,508.9681 Q354.0653,508.9681 353.3778,510.0463 Q352.6903,511.1088 352.6903,513.2025 Q352.6903,515.2963 353.3778,516.3744 Q354.0653,517.4369 355.4091,517.4369 Q356.0341,517.4369 356.6278,517.1713 Q357.2216,516.89 357.8466,516.3119 L357.8466,519.0306 Z " fill="#000000"/><text fill="#000000" font-family="sans-serif" font-size="14" lengthAdjust="spacing" textLength="190.0732" x="373.0507" y="518.2367">FilterLodAndPsetCommand</text><line style="stroke:#181818;stroke-width:0.5;" x1="322.1" x2="583.9018" y1="529.39" y2="529.39"/><text fill="#000000" font-family="sans-serif" font-size="14" lengthAdjust="spacing" textLength="251.8018" x="327.1" y="546.3851">+execute(model: DigitalTwinModel)</text></g><!--class QualityCheckCommand--><g class="entity" data-qualified-name="Controller.QualityCheckCommand" data-source-line="37" id="ent0009"><rect fill="#F1F1F1" height="56.2969" rx="2.5" ry="2.5" style="stroke:#181818;stroke-width:0.5;" width="263.8018" x="620.1" y="497.39"/><ellipse cx="665.2274" cy="513.39" fill="#C2C2C2" rx="11" ry="11" style="stroke:#181818;stroke-width:1;"/><path d="M668.1962,519.0306 Q667.6181,519.3275 666.9774,519.4681 Q666.3368,519.6244 665.6337,519.6244 Q663.1337,519.6244 661.8056,517.9838 Q660.4931,516.3275 660.4931,513.2025 Q660.4931,510.0775 661.8056,508.4213 Q663.1337,506.765 665.6337,506.765 Q666.3368,506.765 666.9774,506.9213 Q667.6337,507.0775 668.1962,507.3744 L668.1962,510.0931 Q667.5712,509.515 666.9774,509.2494 Q666.3837,508.9681 665.7587,508.9681 Q664.4149,508.9681 663.7274,510.0463 Q663.0399,511.1088 663.0399,513.2025 Q663.0399,515.2963 663.7274,516.3744 Q664.4149,517.4369 665.7587,517.4369 Q666.3837,517.4369 666.9774,517.1713 Q667.5712,516.89 668.1962,516.3119 L668.1962,519.0306 Z " fill="#000000"/><text fill="#000000" font-family="sans-serif" font-size="14" lengthAdjust="spacing" textLength="165.0469" x="685.7274" y="518.2367">QualityCheckCommand</text><line style="stroke:#181818;stroke-width:0.5;" x1="621.1" x2="882.9018" y1="529.39" y2="529.39"/><text fill="#000000" font-family="sans-serif" font-size="14" lengthAdjust="spacing" textLength="251.8018" x="626.1" y="546.3851">+execute(model: DigitalTwinModel)</text></g><!--class ConvertToIdfCommand--><g class="entity" data-qualified-name="Controller.ConvertToIdfCommand" data-source-line="40" id="ent0010"><rect fill="#F1F1F1" height="56.2969" rx="2.5" ry="2.5" style="stroke:#181818;stroke-width:0.5;" width="263.8018" x="919.1" y="497.39"/><ellipse cx="965.5639" cy="513.39" fill="#C2C2C2" rx="11" ry="11" style="stroke:#181818;stroke-width:1;"/><path d="M968.5326,519.0306 Q967.9545,519.3275 967.3139,519.4681 Q966.6732,519.6244 965.9701,519.6244 Q963.4701,519.6244 962.142,517.9838 Q960.8295,516.3275 960.8295,513.2025 Q960.8295,510.0775 962.142,508.4213 Q963.4701,506.765 965.9701,506.765 Q966.6732,506.765 967.3139,506.9213 Q967.9701,507.0775 968.5326,507.3744 L968.5326,510.0931 Q967.9076,509.515 967.3139,509.2494 Q966.7201,508.9681 966.0951,508.9681 Q964.7514,508.9681 964.0639,510.0463 Q963.3764,511.1088 963.3764,513.2025 Q963.3764,515.2963 964.0639,516.3744 Q964.7514,517.4369 966.0951,517.4369 Q966.7201,517.4369 967.3139,517.1713 Q967.9076,516.89 968.5326,516.3119 L968.5326,519.0306 Z " fill="#000000"/><text fill="#000000" font-family="sans-serif" font-size="14" lengthAdjust="spacing" textLength="162.374" x="986.0639" y="518.2367">ConvertToIdfCommand</text><line style="stroke:#181818;stroke-width:0.5;" x1="920.1" x2="1181.9018" y1="529.39" y2="529.39"/><text fill="#000000" font-family="sans-serif" font-size="14" lengthAdjust="spacing" textLength="251.8018" x="925.1" y="546.3851">+execute(model: DigitalTwinModel)</text></g><!--class RunEnergyPlusCommand--><g class="entity" data-qualified-name="Controller.RunEnergyPlusCommand" data-source-line="43" id="ent0011"><rect fill="#F1F1F1" height="56.2969" rx="2.5" ry="2.5" style="stroke:#181818;stroke-width:0.5;" width="263.8018" x="1218.1" y="497.39"/><ellipse cx="1257.6764" cy="513.39" fill="#C2C2C2" rx="11" ry="11" style="stroke:#181818;stroke-width:1;"/><path d="M1260.6452,519.0306 Q1260.067,519.3275 1259.4264,519.4681 Q1258.7858,519.6244 1258.0827,519.6244 Q1255.5827,519.6244 1254.2545,517.9838 Q1252.942,516.3275 1252.942,513.2025 Q1252.942,510.0775 1254.2545,508.4213 Q1255.5827,506.765 1258.0827,506.765 Q1258.7858,506.765 1259.4264,506.9213 Q1260.0827,507.0775 1260.6452,507.3744 L1260.6452,510.0931 Q1260.0202,509.515 1259.4264,509.2494 Q1258.8327,508.9681 1258.2077,508.9681 Q1256.8639,508.9681 1256.1764,510.0463 Q1255.4889,511.1088 1255.4889,513.2025 Q1255.4889,515.2963 1256.1764,516.3744 Q1256.8639,517.4369 1258.2077,517.4369 Q1258.8327,517.4369 1259.4264,517.1713 Q1260.0202,516.89 1260.6452,516.3119 L1260.6452,519.0306 Z " fill="#000000"/><text fill="#000000" font-family="sans-serif" font-size="14" lengthAdjust="spacing" textLength="177.1875" x="1277.1378" y="518.2367">RunEnergyPlusCommand</text><line style="stroke:#181818;stroke-width:0.5;" x1="1219.1" x2="1480.9018" y1="529.39" y2="529.39"/><text fill="#000000" font-family="sans-serif" font-size="14" lengthAdjust="spacing" textLength="251.8018" x="1224.1" y="546.3851">+execute(model: DigitalTwinModel)</text></g><!--class RunDeepLearningCommand--><g class="entity" data-qualified-name="Controller.RunDeepLearningCommand" data-source-line="46" id="ent0012"><rect fill="#F1F1F1" height="56.2969" rx="2.5" ry="2.5" style="stroke:#181818;stroke-width:0.5;" width="263.8018" x="1517.1" y="497.39"/><ellipse cx="1547.494" cy="513.39" fill="#C2C2C2" rx="11" ry="11" style="stroke:#181818;stroke-width:1;"/><path d="M1550.4628,519.0306 Q1549.8847,519.3275 1549.244,519.4681 Q1548.6034,519.6244 1547.9003,519.6244 Q1545.4003,519.6244 1544.0722,517.9838 Q1542.7597,516.3275 1542.7597,513.2025 Q1542.7597,510.0775 1544.0722,508.4213 Q1545.4003,506.765 1547.9003,506.765 Q1548.6034,506.765 1549.244,506.9213 Q1549.9003,507.0775 1550.4628,507.3744 L1550.4628,510.0931 Q1549.8378,509.515 1549.244,509.2494 Q1548.6503,508.9681 1548.0253,508.9681 Q1546.6815,508.9681 1545.994,510.0463 Q1545.3065,511.1088 1545.3065,513.2025 Q1545.3065,515.2963 1545.994,516.3744 Q1546.6815,517.4369 1548.0253,517.4369 Q1548.6503,517.4369 1549.244,517.1713 Q1549.8378,516.89 1550.4628,516.3119 L1550.4628,519.0306 Z " fill="#000000"/><text fill="#000000" font-family="sans-serif" font-size="14" lengthAdjust="spacing" textLength="197.5928" x="1564.9149" y="518.2367">RunDeepLearningCommand</text><line style="stroke:#181818;stroke-width:0.5;" x1="1518.1" x2="1779.9018" y1="529.39" y2="529.39"/><text fill="#000000" font-family="sans-serif" font-size="14" lengthAdjust="spacing" textLength="251.8018" x="1523.1" y="546.3851">+execute(model: DigitalTwinModel)</text></g><!--class SimulationView--><g class="entity" data-qualified-name="View.SimulationView" data-source-line="60" id="ent0020"><rect fill="#F1F1F1" height="96.8906" rx="2.5" ry="2.5" style="stroke:#181818;stroke-width:0.5;" width="336.6523" x="2309.67" y="292.92"/><ellipse cx="2419.6944" cy="308.92" fill="#C2C2C2" rx="11" ry="11" style="stroke:#181818;stroke-width:1;"/><path d="M2422.6632,314.5606 Q2422.085,314.8575 2421.4444,314.9981 Q2420.8038,315.1544 2420.1007,315.1544 Q2417.6007,315.1544 2416.2725,313.5138 Q2414.96,311.8575 2414.96,308.7325 Q2414.96,305.6075 2416.2725,303.9513 Q2417.6007,302.295 2420.1007,302.295 Q2420.8038,302.295 2421.4444,302.4513 Q2422.1007,302.6075 2422.6632,302.9044 L2422.6632,305.6231 Q2422.0382,305.045 2421.4444,304.7794 Q2420.8507,304.4981 2420.2257,304.4981 Q2418.8819,304.4981 2418.1944,305.5763 Q2417.5069,306.6388 2417.5069,308.7325 Q2417.5069,310.8263 2418.1944,311.9044 Q2418.8819,312.9669 2420.2257,312.9669 Q2420.8507,312.9669 2421.4444,312.7013 Q2422.0382,312.42 2422.6632,311.8419 L2422.6632,314.5606 Z " fill="#000000"/><text fill="#000000" font-family="sans-serif" font-size="14" lengthAdjust="spacing" textLength="108.1035" x="2440.1944" y="313.7667">SimulationView</text><line style="stroke:#181818;stroke-width:0.5;" x1="2310.67" x2="2645.3223" y1="324.92" y2="324.92"/><text fill="#000000" font-family="sans-serif" font-size="14" lengthAdjust="spacing" textLength="226.8916" x="2315.67" y="341.9151">-renderAdapter: IRenderAdapter</text><line style="stroke:#181818;stroke-width:0.5;" x1="2310.67" x2="2645.3223" y1="349.2169" y2="349.2169"/><text fill="#000000" font-family="sans-serif" font-size="14" lengthAdjust="spacing" textLength="324.6523" x="2315.67" y="366.212">+setRenderAdapter(adapter: IRenderAdapter)</text><text fill="#000000" font-family="sans-serif" font-size="14" lengthAdjust="spacing" textLength="245.3281" x="2315.67" y="382.5089">+display(model: DigitalTwinModel)</text></g><!--class IRenderAdapter--><g class="entity" data-qualified-name="View.IRenderAdapter" data-source-line="66" id="ent0021"><rect fill="#F1F1F1" height="64.5625" rx="2.5" ry="2.5" style="stroke:#181818;stroke-width:0.5;" width="246.3428" x="2410.83" y="493.26"/><ellipse cx="2474.558" cy="513.3928" fill="#B1B1B1" rx="11" ry="11" style="stroke:#181818;stroke-width:1;"/><path d="M2470.4799,509.1584 L2470.4799,507.0022 L2477.8705,507.0022 L2477.8705,509.1584 L2475.4018,509.1584 L2475.4018,517.2366 L2477.8705,517.2366 L2477.8705,519.3928 L2470.4799,519.3928 L2470.4799,517.2366 L2472.9487,517.2366 L2472.9487,509.1584 L2470.4799,509.1584 Z " fill="#000000"/><text fill="#000000" font-family="sans-serif" font-size="12" font-style="italic" lengthAdjust="spacing" textLength="68.4082" x="2516.0473" y="509.3987">&#171;Interface&#187;</text><text fill="#000000" font-family="sans-serif" font-size="14" font-style="italic" lengthAdjust="spacing" textLength="110.3867" x="2495.058" y="525.2239">IRenderAdapter</text><line style="stroke:#181818;stroke-width:0.5;" x1="2411.83" x2="2656.1728" y1="533.5256" y2="533.5256"/><text fill="#000000" font-family="sans-serif" font-size="14" lengthAdjust="spacing" textLength="234.3428" x="2416.83" y="550.5207">+render(result: ResultData): void</text></g><!--class EnergyPlusHtmlAdapter--><g class="entity" data-qualified-name="View.EnergyPlusHtmlAdapter" data-source-line="70" id="ent0022"><rect fill="#F1F1F1" height="56.2969" rx="2.5" ry="2.5" style="stroke:#181818;stroke-width:0.5;" width="207.5488" x="2221.23" y="618.82"/><ellipse cx="2240.0361" cy="634.82" fill="#C2C2C2" rx="11" ry="11" style="stroke:#181818;stroke-width:1;"/><path d="M2243.0049,640.4606 Q2242.4267,640.7575 2241.7861,640.8981 Q2241.1455,641.0544 2240.4424,641.0544 Q2237.9424,641.0544 2236.6142,639.4138 Q2235.3017,637.7575 2235.3017,634.6325 Q2235.3017,631.5075 2236.6142,629.8513 Q2237.9424,628.195 2240.4424,628.195 Q2241.1455,628.195 2241.7861,628.3513 Q2242.4424,628.5075 2243.0049,628.8044 L2243.0049,631.5231 Q2242.3799,630.945 2241.7861,630.6794 Q2241.1924,630.3981 2240.5674,630.3981 Q2239.2236,630.3981 2238.5361,631.4763 Q2237.8486,632.5388 2237.8486,634.6325 Q2237.8486,636.7263 2238.5361,637.8044 Q2239.2236,638.8669 2240.5674,638.8669 Q2241.1924,638.8669 2241.7861,638.6013 Q2242.3799,638.32 2243.0049,637.7419 L2243.0049,640.4606 Z " fill="#000000"/><text fill="#000000" font-family="sans-serif" font-size="14" lengthAdjust="spacing" textLength="167.0908" x="2254.8819" y="639.6667">EnergyPlusHtmlAdapter</text><line style="stroke:#181818;stroke-width:0.5;" x1="2222.23" x2="2427.7788" y1="650.82" y2="650.82"/><text fill="#000000" font-family="sans-serif" font-size="14" lengthAdjust="spacing" textLength="195.5488" x="2227.23" y="667.8151">+render(result: ResultData)</text></g><!--class DashboardChartAdapter--><g class="entity" data-qualified-name="View.DashboardChartAdapter" data-source-line="73" id="ent0023"><rect fill="#F1F1F1" height="56.2969" rx="2.5" ry="2.5" style="stroke:#181818;stroke-width:0.5;" width="207.5488" x="2464.23" y="618.82"/><ellipse cx="2481.5196" cy="634.82" fill="#C2C2C2" rx="11" ry="11" style="stroke:#181818;stroke-width:1;"/><path d="M2484.4883,640.4606 Q2483.9102,640.7575 2483.2696,640.8981 Q2482.6289,641.0544 2481.9258,641.0544 Q2479.4258,641.0544 2478.0977,639.4138 Q2476.7852,637.7575 2476.7852,634.6325 Q2476.7852,631.5075 2478.0977,629.8513 Q2479.4258,628.195 2481.9258,628.195 Q2482.6289,628.195 2483.2696,628.3513 Q2483.9258,628.5075 2484.4883,628.8044 L2484.4883,631.5231 Q2483.8633,630.945 2483.2696,630.6794 Q2482.6758,630.3981 2482.0508,630.3981 Q2480.7071,630.3981 2480.0196,631.4763 Q2479.3321,632.5388 2479.3321,634.6325 Q2479.3321,636.7263 2480.0196,637.8044 Q2480.7071,638.8669 2482.0508,638.8669 Q2482.6758,638.8669 2483.2696,638.6013 Q2483.8633,638.32 2484.4883,637.7419 L2484.4883,640.4606 Z " fill="#000000"/><text fill="#000000" font-family="sans-serif" font-size="14" lengthAdjust="spacing" textLength="170.4609" x="2496.0283" y="639.6667">DashboardChartAdapter</text><line style="stroke:#181818;stroke-width:0.5;" x1="2465.23" x2="2670.7788" y1="650.82" y2="650.82"/><text fill="#000000" font-family="sans-serif" font-size="14" lengthAdjust="spacing" textLength="195.5488" x="2470.23" y="667.8151">+render(result: ResultData)</text></g><!--class WebGL3DViewerAdapter--><g class="entity" data-qualified-name="View.WebGL3DViewerAdapter" data-source-line="76" id="ent0024"><rect fill="#F1F1F1" height="56.2969" rx="2.5" ry="2.5" style="stroke:#181818;stroke-width:0.5;" width="207.5488" x="2707.23" y="618.82"/><ellipse cx="2723.2122" cy="634.82" fill="#C2C2C2" rx="11" ry="11" style="stroke:#181818;stroke-width:1;"/><path d="M2726.1809,640.4606 Q2725.6028,640.7575 2724.9622,640.8981 Q2724.3216,641.0544 2723.6184,641.0544 Q2721.1184,641.0544 2719.7903,639.4138 Q2718.4778,637.7575 2718.4778,634.6325 Q2718.4778,631.5075 2719.7903,629.8513 Q2721.1184,628.195 2723.6184,628.195 Q2724.3216,628.195 2724.9622,628.3513 Q2725.6184,628.5075 2726.1809,628.8044 L2726.1809,631.5231 Q2725.5559,630.945 2724.9622,630.6794 Q2724.3684,630.3981 2723.7434,630.3981 Q2722.3997,630.3981 2721.7122,631.4763 Q2721.0247,632.5388 2721.0247,634.6325 Q2721.0247,636.7263 2721.7122,637.8044 Q2722.3997,638.8669 2723.7434,638.8669 Q2724.3684,638.8669 2724.9622,638.6013 Q2725.5559,638.32 2726.1809,637.7419 L2726.1809,640.4606 Z " fill="#000000"/><text fill="#000000" font-family="sans-serif" font-size="14" lengthAdjust="spacing" textLength="173.3662" x="2737.4304" y="639.6667">WebGL3DViewerAdapter</text><line style="stroke:#181818;stroke-width:0.5;" x1="2708.23" x2="2913.7788" y1="650.82" y2="650.82"/><text fill="#000000" font-family="sans-serif" font-size="14" lengthAdjust="spacing" textLength="195.5488" x="2713.23" y="667.8151">+render(result: ResultData)</text></g><g class="entity" data-qualified-name="GMN33" data-source-line="94" id="ent0034"><path d="M1816.06,78.04 L1816.06,101.74 L1781.09,105.74 L1816.06,109.74 L1816.06,133.4384 A0,0 0 0 0 1816.06,133.4384 L2055.9399,133.4384 A0,0 0 0 0 2055.9399,133.4384 L2055.9399,88.04 L2045.9399,78.04 L1816.06,78.04 A0,0 0 0 0 1816.06,78.04" fill="#FAFAFA" style="stroke:#181818;stroke-width:0.5;"/><path d="M2045.9399,78.04 L2045.9399,88.04 L2055.9399,88.04 L2045.9399,78.04" fill="#FAFAFA" style="stroke:#181818;stroke-width:0.5;"/><text fill="#000000" font-family="sans-serif" font-size="13" lengthAdjust="spacing" textLength="218.8799" x="1822.06" y="95.1069">Pipeline Commands are executed</text><text fill="#000000" font-family="sans-serif" font-size="13" lengthAdjust="spacing" textLength="177.6772" x="1822.06" y="110.2397">sequentially, modifying the</text><text fill="#000000" font-family="sans-serif" font-size="13" lengthAdjust="spacing" textLength="152.8135" x="1822.06" y="125.3725">DigitalTwinModel state.</text></g><!--reverse link IPipelineCommand to LoadBimCommand--><g class="link" data-entity-1="ent0006" data-entity-2="ent0007" data-link-type="extension" data-source-line="50" id="lnk13"><path codeLine="50" d="M1030.5025,368.9013 C852.0525,397.2213 564.82,444.12 304,493.26 C297.73,494.44 291.31,495.68 284.83,496.95" fill="none" id="IPipelineCommand-backto-LoadBimCommand" style="stroke:#181818;stroke-width:1;stroke-dasharray:7,7;"/><polygon fill="none" points="1048.28,366.08,1029.562,362.9755,1031.4429,374.8271,1048.28,366.08" style="stroke:#181818;stroke-width:1;"/></g><!--reverse link IPipelineCommand to FilterLodAndPsetCommand--><g class="link" data-entity-1="ent0006" data-entity-2="ent0008" data-link-type="extension" data-source-line="51" id="lnk14"><path codeLine="51" d="M1052.3925,378.3647 C910.0625,413.0747 701.7,463.89 566.36,496.9" fill="none" id="IPipelineCommand-backto-FilterLodAndPsetCommand" style="stroke:#181818;stroke-width:1;stroke-dasharray:7,7;"/><polygon fill="none" points="1069.88,374.1,1050.9709,372.5355,1053.8141,384.1938,1069.88,374.1" style="stroke:#181818;stroke-width:1;"/></g><!--reverse link IPipelineCommand to QualityCheckCommand--><g class="link" data-entity-1="ent0006" data-entity-2="ent0009" data-link-type="extension" data-source-line="52" id="lnk15"><path codeLine="52" d="M1105.2858,380.8802 C1019.9258,415.5902 901.15,463.89 819.99,496.9" fill="none" id="IPipelineCommand-backto-QualityCheckCommand" style="stroke:#181818;stroke-width:1;stroke-dasharray:7,7;"/><polygon fill="none" points="1121.96,374.1,1103.0257,375.3222,1107.5459,386.4383,1121.96,374.1" style="stroke:#181818;stroke-width:1;"/></g><!--reverse link IPipelineCommand to ConvertToIdfCommand--><g class="link" data-entity-1="ent0006" data-entity-2="ent0010" data-link-type="extension" data-source-line="53" id="lnk16"><path codeLine="53" d="M1162.6517,388.0312 C1134.2117,422.7912 1100.47,464.05 1073.49,497.04" fill="none" id="IPipelineCommand-backto-ConvertToIdfCommand" style="stroke:#181818;stroke-width:1;stroke-dasharray:7,7;"/><polygon fill="none" points="1174.05,374.1,1158.008,384.2318,1167.2955,391.8307,1174.05,374.1" style="stroke:#181818;stroke-width:1;"/></g><!--reverse link IPipelineCommand to RunEnergyPlusCommand--><g class="link" data-entity-1="ent0006" data-entity-2="ent0011" data-link-type="extension" data-source-line="54" id="lnk17"><path codeLine="54" d="M1237.5713,387.9959 C1266.1913,422.7559 1300.19,464.05 1327.36,497.04" fill="none" id="IPipelineCommand-backto-RunEnergyPlusCommand" style="stroke:#181818;stroke-width:1;stroke-dasharray:7,7;"/><polygon fill="none" points="1226.13,374.1,1232.9394,391.8097,1242.2033,384.1821,1226.13,374.1" style="stroke:#181818;stroke-width:1;"/></g><!--reverse link IPipelineCommand to RunDeepLearningCommand--><g class="link" data-entity-1="ent0006" data-entity-2="ent0012" data-link-type="extension" data-source-line="55" id="lnk18"><path codeLine="55" d="M1294.8894,380.8673 C1380.4394,415.5773 1499.51,463.89 1580.86,496.9" fill="none" id="IPipelineCommand-backto-RunDeepLearningCommand" style="stroke:#181818;stroke-width:1;stroke-dasharray:7,7;"/><polygon fill="none" points="1278.21,374.1,1292.6337,386.4271,1297.1452,375.3075,1278.21,374.1" style="stroke:#181818;stroke-width:1;"/></g><!--reverse link IRenderAdapter to EnergyPlusHtmlAdapter--><g class="link" data-entity-1="ent0021" data-entity-2="ent0022" data-link-type="extension" data-source-line="80" id="lnk25"><path codeLine="80" d="M2462.9125,567.162 C2430.1425,585.892 2404.67,600.44 2373.25,618.4" fill="none" id="IRenderAdapter-backto-EnergyPlusHtmlAdapter" style="stroke:#181818;stroke-width:1;stroke-dasharray:7,7;"/><polygon fill="none" points="2478.54,558.23,2459.9352,561.9529,2465.8899,572.3712,2478.54,558.23" style="stroke:#181818;stroke-width:1;"/></g><!--reverse link IRenderAdapter to DashboardChartAdapter--><g class="link" data-entity-1="ent0021" data-entity-2="ent0023" data-link-type="extension" data-source-line="81" id="lnk26"><path codeLine="81" d="M2547.9467,575.5426 C2553.2967,594.3426 2555.09,600.62 2560.21,618.6" fill="none" id="IRenderAdapter-backto-DashboardChartAdapter" style="stroke:#181818;stroke-width:1;stroke-dasharray:7,7;"/><polygon fill="none" points="2543.02,558.23,2542.1759,577.1849,2553.7176,573.9004,2543.02,558.23" style="stroke:#181818;stroke-width:1;"/></g><!--reverse link IRenderAdapter to WebGL3DViewerAdapter--><g class="link" data-entity-1="ent0021" data-entity-2="ent0024" data-link-type="extension" data-source-line="82" id="lnk27"><path codeLine="82" d="M2624.029,565.3568 C2667.469,584.0868 2705.4,600.44 2747.06,618.4" fill="none" id="IRenderAdapter-backto-WebGL3DViewerAdapter" style="stroke:#181818;stroke-width:1;stroke-dasharray:7,7;"/><polygon fill="none" points="2607.5,558.23,2621.6534,570.8665,2626.4046,559.8471,2607.5,558.23" style="stroke:#181818;stroke-width:1;"/></g><!--link SimulationController to DigitalTwinModel--><g class="link" data-entity-1="ent0005" data-entity-2="ent0003" data-link-type="aggregation" data-source-line="86" id="lnk28"><path codeLine="86" d="M1734.8405,177.162 C1783.9705,207.282 1827.3849,233.9138 1878.0749,264.9938" fill="none" id="SimulationController-DigitalTwinModel" style="stroke:#181818;stroke-width:1;"/><polygon fill="none" points="1724.61,170.89,1727.6346,177.4361,1734.8405,177.162,1731.8159,170.6158,1724.61,170.89" style="stroke:#181818;stroke-width:1;"/><polygon fill="#181818" points="1883.19,268.13,1877.6082,260.0156,1878.9274,265.5165,1873.4266,266.8357,1883.19,268.13" style="stroke:#181818;stroke-width:1;"/><text fill="#000000" font-family="sans-serif" font-size="13" lengthAdjust="spacing" textLength="52.5776" x="1800" y="213.5469">updates</text></g><!--link SimulationController to SimulationView--><g class="link" data-entity-1="ent0005" data-entity-2="ent0020" data-link-type="aggregation" data-source-line="87" id="lnk29"><path codeLine="87" d="M1792.5862,168.9734 C1798.6262,170.6634 1793.08,169.01 1799,170.48 C1965.51,211.68 2015.06,182.04 2181,225.48 C2245.85,242.46 2310.3561,266.8115 2366.1361,290.1815" fill="none" id="SimulationController-SimulationView" style="stroke:#181818;stroke-width:1;"/><polygon fill="none" points="1781.03,165.74,1785.7303,171.2088,1792.5862,168.9734,1787.8859,163.5047,1781.03,165.74" style="stroke:#181818;stroke-width:1;"/><polygon fill="#181818" points="2371.67,292.5,2364.9148,285.3329,2367.0584,290.5679,2361.8234,292.7115,2371.67,292.5" style="stroke:#181818;stroke-width:1;"/><text fill="#000000" font-family="sans-serif" font-size="13" lengthAdjust="spacing" textLength="50.6733" x="2144" y="213.5469">triggers</text></g><!--link SimulationController to IPipelineCommand--><g class="link" data-entity-1="ent0005" data-entity-2="ent0006" data-link-type="composition" data-source-line="88" id="lnk30"><path codeLine="88" d="M1494.193,176.7229 C1413.683,221.5029 1325.4333,270.5931 1262.1233,305.8131" fill="none" id="SimulationController-IPipelineCommand" style="stroke:#181818;stroke-width:1;"/><polygon fill="#181818" points="1504.68,170.89,1497.4922,170.3108,1494.193,176.7229,1501.3808,177.3021,1504.68,170.89" style="stroke:#181818;stroke-width:1;"/><polygon fill="#181818" points="1256.88,308.73,1266.6895,307.8502,1261.2494,306.2993,1262.8003,300.8592,1256.88,308.73" style="stroke:#181818;stroke-width:1;"/><text fill="#000000" font-family="sans-serif" font-size="13" lengthAdjust="spacing" textLength="137.2046" x="1448" y="213.5469">manages &amp; executes</text></g><!--link SimulationView to IRenderAdapter--><g class="link" data-entity-1="ent0020" data-entity-2="ent0021" data-link-type="aggregation" data-source-line="90" id="lnk31"><path codeLine="90" d="M2496.2356,401.7004 C2506.2156,434.1704 2513.848,458.9745 2522.548,487.2945" fill="none" id="SimulationView-IRenderAdapter" style="stroke:#181818;stroke-width:1;"/><polygon fill="none" points="2492.71,390.23,2490.6493,397.1404,2496.2356,401.7004,2498.2962,394.79,2492.71,390.23" style="stroke:#181818;stroke-width:1;"/><polygon fill="#181818" points="2524.31,493.03,2525.4907,483.2522,2522.8417,488.2504,2517.8434,485.6014,2524.31,493.03" style="stroke:#181818;stroke-width:1;"/><text fill="#000000" font-family="sans-serif" font-size="13" lengthAdjust="spacing" textLength="29.7832" x="2515" y="459.3269">uses</text></g><!--link IPipelineCommand to DigitalTwinModel--><g class="link" data-entity-1="ent0006" data-entity-2="ent0003" data-link-type="dependency" data-source-line="91" id="lnk32"><path codeLine="91" d="M1351.6,341.37 C1489.94,341.37 1687.91,341.37 1830.22,341.37" fill="none" id="IPipelineCommand-to-DigitalTwinModel" style="stroke:#181818;stroke-width:1;stroke-dasharray:7,7;"/><polygon fill="#181818" points="1836.22,341.37,1827.22,337.37,1831.22,341.37,1827.22,345.37,1836.22,341.37" style="stroke:#181818;stroke-width:1;"/><text fill="#000000" font-family="sans-serif" font-size="13" lengthAdjust="spacing" textLength="92.5044" x="1547.94" y="334.4369">modifies state</text></g><?plantuml-src hLPHRzem47xFhx3wiD5je4bxYoeaHkY655fAKVjiuYEnwjYPxRHZQ__xBWaP9WbiLSa38RdpTtVVdR_OF72PKKrJ4WbgpCXQpLUvXMcav2t_1UIpP_wwf4ggAD4g1M9r3bx26H18CxiXAQGhqCRptfD-lqzcry4aBFvv6OqUQ0paRAOOY3FosoDubS58m6DkgLW-SLbQjyRY-aWqVVhAqu1QwfFfEhha0Xnh2fOoj8sLNFFO9zNTSLXpOK43gm027bd7Q7YQ2sgvaWimkR0-gUw5i-CMWzscq3jtNkSPHeRR1aPFjw2gHI_UIqtB-FfgkRWEmyc2lCE7sMnq5P3vQBcSBAxssS9wh5P2WDwdR1Trv-7GriSU8P5-Yrh7uv73a-y0tU6pOuvKcbB9RdB8mISXD_PYEkSP22vXNDc63XcKiUtRNfGoR5N3roLEvxAszcfkoXkNsAirZQ2rd5nSJ6lZSBWt8F0J8fpKte6Apttog3XpmrGKXeeoR6iTu3MGMx0TrcKvPQ5Y8ydc1kn9G6zoAhZTZ1E87au2YAFo2DekrPIjJmAuoEL4WeutSv6RKo4605a8L4ikupTYbZ_jKNeU31hTF-9ueBL7LdJqxOXtHrEEU7SnVjozWywT4DrD9_SeGQDWD4VjwPQWGXSEYKzXsvCT3PA17Z6Q8Mce0WltsLLUi7kc7krUuie6uoOJTFElnZULP0_lY8vKgNV9zo45sNNYkqr57U7_C5kJ7r2Jh1JLR9nGRTy8TW-hR-6Ne6ZFhlHNOLL3rU2k6AdEeWzwTrPrqBihxTsmBg0QEfFmp9GpslaLLFt-i7sayBUVQtDaKMEkVJpTy3WkZZETQpuKQrhxpYTumurZS5zjfGgFGmteCbo30SpGe6iBSD1P3Mu2lkOOnLYiolEaia0mtSGIjUuy7Y3hDJJPOXj2DTHP5WDku4SEqd8gnEPJ5ME3ka5i0eMOjl8eWmyyh8CK2Vm1?></g></svg>